<?xml version="1.0" encoding="UTF-8"?>
<svg width="200px" height="200px" viewBox="0 0 200 200" version="1.1" xmlns="http://www.w3.org/2000/svg">
  <g stroke="none" stroke-width="1" fill="none" fill-rule="evenodd">
    <!-- Pot -->
    <path d="M70,170 L65,190 L135,190 L130,170 Z" fill="#B26E63" />
    
    <!-- Aloe plant center -->
    <ellipse cx="100" cy="155" rx="25" ry="10" fill="#698C4E" />
    
    <!-- Aloe leaves - spiky, fleshy leaves in rosette pattern -->
    <!-- Back leaf - tall center -->
    <path d="M100,155 L100,50 L110,60 L100,70 L90,60 L100,50" fill="#698C4E" />
    <path d="M100,155 L100,50" stroke="#4A7E43" stroke-width="1" />
    <path d="M100,50 L110,60" stroke="#4A7E43" stroke-width="1" />
    <path d="M110,60 L100,70" stroke="#4A7E43" stroke-width="1" />
    <path d="M100,70 L90,60" stroke="#4A7E43" stroke-width="1" />
    <path d="M90,60 L100,50" stroke="#4A7E43" stroke-width="1" />
    
    <!-- Spikes along edges -->
    <path d="M100,50 L102,52 L100,54" stroke="#4A7E43" stroke-width="0.5" />
    <path d="M110,60 L108,62 L106,64" stroke="#4A7E43" stroke-width="0.5" />
    <path d="M100,70 L102,72 L100,74" stroke="#4A7E43" stroke-width="0.5" />
    <path d="M90,60 L92,62 L94,64" stroke="#4A7E43" stroke-width="0.5" />
    
    <!-- Left leaf 1 -->
    <path d="M90,155 L75,70 L85,75 L90,85 L95,75 L90,70" fill="#75AA54" />
    <path d="M90,155 L75,70" stroke="#4A7E43" stroke-width="1" />
    <path d="M75,70 L85,75" stroke="#4A7E43" stroke-width="1" />
    <path d="M85,75 L90,85" stroke="#4A7E43" stroke-width="1" />
    <path d="M90,85 L95,75" stroke="#4A7E43" stroke-width="1" />
    <path d="M95,75 L90,70" stroke="#4A7E43" stroke-width="1" />
    
    <!-- Spikes along edges -->
    <path d="M75,70 L77,73 L79,76" stroke="#4A7E43" stroke-width="0.5" />
    <path d="M85,75 L87,78 L89,81" stroke="#4A7E43" stroke-width="0.5" />
    <path d="M90,85 L88,88 L86,91" stroke="#4A7E43" stroke-width="0.5" />
    <path d="M95,75 L93,78 L91,81" stroke="#4A7E43" stroke-width="0.5" />
    
    <!-- Right leaf 1 -->
    <path d="M110,155 L125,70 L115,75 L110,85 L105,75 L110,70" fill="#75AA54" />
    <path d="M110,155 L125,70" stroke="#4A7E43" stroke-width="1" />
    <path d="M125,70 L115,75" stroke="#4A7E43" stroke-width="1" />
    <path d="M115,75 L110,85" stroke="#4A7E43" stroke-width="1" />
    <path d="M110,85 L105,75" stroke="#4A7E43" stroke-width="1" />
    <path d="M105,75 L110,70" stroke="#4A7E43" stroke-width="1" />
    
    <!-- Spikes along edges -->
    <path d="M125,70 L123,73 L121,76" stroke="#4A7E43" stroke-width="0.5" />
    <path d="M115,75 L113,78 L111,81" stroke="#4A7E43" stroke-width="0.5" />
    <path d="M110,85 L112,88 L114,91" stroke="#4A7E43" stroke-width="0.5" />
    <path d="M105,75 L107,78 L109,81" stroke="#4A7E43" stroke-width="0.5" />
    
    <!-- Left leaf 2 - more horizontal -->
    <path d="M85,155 L55,90 L65,95 L75,100 L75,90 L65,85" fill="#75AA54" />
    <path d="M85,155 L55,90" stroke="#4A7E43" stroke-width="1" />
    <path d="M55,90 L65,95" stroke="#4A7E43" stroke-width="1" />
    <path d="M65,95 L75,100" stroke="#4A7E43" stroke-width="1" />
    <path d="M75,100 L75,90" stroke="#4A7E43" stroke-width="1" />
    <path d="M75,90 L65,85" stroke="#4A7E43" stroke-width="1" />
    <path d="M65,85 L55,90" stroke="#4A7E43" stroke-width="1" />
    
    <!-- Spikes along edges -->
    <path d="M55,90 L57,93 L59,96" stroke="#4A7E43" stroke-width="0.5" />
    <path d="M65,95 L67,98 L69,101" stroke="#4A7E43" stroke-width="0.5" />
    <path d="M75,100 L73,103 L71,106" stroke="#4A7E43" stroke-width="0.5" />
    <path d="M75,90 L73,93 L71,96" stroke="#4A7E43" stroke-width="0.5" />
    <path d="M65,85 L67,88 L69,91" stroke="#4A7E43" stroke-width="0.5" />
    
    <!-- Right leaf 2 - more horizontal -->
    <path d="M115,155 L145,90 L135,95 L125,100 L125,90 L135,85" fill="#75AA54" />
    <path d="M115,155 L145,90" stroke="#4A7E43" stroke-width="1" />
    <path d="M145,90 L135,95" stroke="#4A7E43" stroke-width="1" />
    <path d="M135,95 L125,100" stroke="#4A7E43" stroke-width="1" />
    <path d="M125,100 L125,90" stroke="#4A7E43" stroke-width="1" />
    <path d="M125,90 L135,85" stroke="#4A7E43" stroke-width="1" />
    <path d="M135,85 L145,90" stroke="#4A7E43" stroke-width="1" />
    
    <!-- Spikes along edges -->
    <path d="M145,90 L143,93 L141,96" stroke="#4A7E43" stroke-width="0.5" />
    <path d="M135,95 L133,98 L131,101" stroke="#4A7E43" stroke-width="0.5" />
    <path d="M125,100 L127,103 L129,106" stroke="#4A7E43" stroke-width="0.5" />
    <path d="M125,90 L127,93 L129,96" stroke="#4A7E43" stroke-width="0.5" />
    <path d="M135,85 L133,88 L131,91" stroke="#4A7E43" stroke-width="0.5" />
    
    <!-- Left leaf 3 - front -->
    <path d="M95,155 L60,120 L70,125 L80,130 L80,120 L70,115" fill="#75AA54" />
    <path d="M95,155 L60,120" stroke="#4A7E43" stroke-width="1" />
    <path d="M60,120 L70,125" stroke="#4A7E43" stroke-width="1" />
    <path d="M70,125 L80,130" stroke="#4A7E43" stroke-width="1" />
    <path d="M80,130 L80,120" stroke="#4A7E43" stroke-width="1" />
    <path d="M80,120 L70,115" stroke="#4A7E43" stroke-width="1" />
    <path d="M70,115 L60,120" stroke="#4A7E43" stroke-width="1" />
    
    <!-- Spikes along edges -->
    <path d="M60,120 L62,123 L64,126" stroke="#4A7E43" stroke-width="0.5" />
    <path d="M70,125 L72,128 L74,131" stroke="#4A7E43" stroke-width="0.5" />
    <path d="M80,130 L78,133 L76,136" stroke="#4A7E43" stroke-width="0.5" />
    <path d="M80,120 L78,123 L76,126" stroke="#4A7E43" stroke-width="0.5" />
    <path d="M70,115 L72,118 L74,121" stroke="#4A7E43" stroke-width="0.5" />
    
    <!-- Right leaf 3 - front -->
    <path d="M105,155 L140,120 L130,125 L120,130 L120,120 L130,115" fill="#75AA54" />
    <path d="M105,155 L140,120" stroke="#4A7E43" stroke-width="1" />
    <path d="M140,120 L130,125" stroke="#4A7E43" stroke-width="1" />
    <path d="M130,125 L120,130" stroke="#4A7E43" stroke-width="1" />
    <path d="M120,130 L120,120" stroke="#4A7E43" stroke-width="1" />
    <path d="M120,120 L130,115" stroke="#4A7E43" stroke-width="1" />
    <path d="M130,115 L140,120" stroke="#4A7E43" stroke-width="1" />
    
    <!-- Spikes along edges -->
    <path d="M140,120 L138,123 L136,126" stroke="#4A7E43" stroke-width="0.5" />
    <path d="M130,125 L128,128 L126,131" stroke="#4A7E43" stroke-width="0.5" />
    <path d="M120,130 L122,133 L124,136" stroke="#4A7E43" stroke-width="0.5" />
    <path d="M120,120 L122,123 L124,126" stroke="#4A7E43" stroke-width="0.5" />
    <path d="M130,115 L128,118 L126,121" stroke="#4A7E43" stroke-width="0.5" />
    
    <!-- Inner lighter coloring/markings on leaves -->
    <path d="M100,155 L100,60" stroke="#BDF2C4" stroke-width="3" stroke-opacity="0.5" />
    <path d="M90,155 L85,90" stroke="#BDF2C4" stroke-width="2" stroke-opacity="0.5" />
    <path d="M110,155 L115,90" stroke="#BDF2C4" stroke-width="2" stroke-opacity="0.5" />
    <path d="M85,155 L65,100" stroke="#BDF2C4" stroke-width="2" stroke-opacity="0.5" />
    <path d="M115,155 L135,100" stroke="#BDF2C4" stroke-width="2" stroke-opacity="0.5" />
    <path d="M95,155 L75,130" stroke="#BDF2C4" stroke-width="2" stroke-opacity="0.5" />
    <path d="M105,155 L125,130" stroke="#BDF2C4" stroke-width="2" stroke-opacity="0.5" />
  </g>
</svg>