<svg width="512" height="512" viewBox="0 0 512 512" xmlns="http://www.w3.org/2000/svg">
  <!-- Pot -->
  <path d="M 190 370 L 322 370 L 302 450 L 210 450 Z" fill="#A67563"/>
  <rect x="182" y="358" width="148" height="16" rx="3" fill="#B88A7A"/>
  <!-- Stems -->
  <path d="M 245 365 C 235 310 220 260 210 200" stroke="#3D7A32" stroke-width="5" fill="none" stroke-linecap="round"/>
  <path d="M 268 365 C 278 300 295 240 310 180" stroke="#3D7A32" stroke-width="5" fill="none" stroke-linecap="round"/>
  <path d="M 256 365 C 256 310 256 260 256 200" stroke="#3D7A32" stroke-width="5" fill="none" stroke-linecap="round"/>
  <!-- Dark green heart-shaped leaves -->
  <path d="M 210 200 C 180 170 160 130 185 100 C 198 85 210 95 210 108 C 210 95 222 85 235 100 C 260 130 240 170 210 200 Z" fill="#3D6B30"/>
  <path d="M 310 180 C 280 150 260 110 285 80 C 298 65 310 75 310 88 C 310 75 322 65 335 80 C 360 110 340 150 310 180 Z" fill="#3D6B30"/>
  <!-- Red/pink anthurium flower (spathe) -->
  <path d="M 256 200 C 226 170 206 130 231 100 C 244 85 256 95 256 108 C 256 95 268 85 281 100 C 306 130 286 170 256 200 Z" fill="#E04040"/>
  <!-- Spadix (yellow spike) -->
  <path d="M 256 110 C 258 130 260 150 262 170" stroke="#F0D060" stroke-width="6" fill="none" stroke-linecap="round"/>
</svg>