<svg width="512" height="512" viewBox="0 0 512 512" xmlns="http://www.w3.org/2000/svg">
  <!-- Pot -->
  <path d="M 186 400 L 326 400 L 304 480 L 208 480 Z" fill="#A67563"/>
  <rect x="178" y="388" width="156" height="16" rx="3" fill="#B88A7A"/>
  <!-- Tall stems -->
  <path d="M 240 390 C 235 330 225 250 210 160" stroke="#3D7A32" stroke-width="7" fill="none" stroke-linecap="round"/>
  <path d="M 272 390 C 278 320 288 240 300 150" stroke="#3D7A32" stroke-width="7" fill="none" stroke-linecap="round"/>
  <path d="M 256 390 C 256 320 256 240 256 140" stroke="#3D7A32" stroke-width="7" fill="none" stroke-linecap="round"/>
  <!-- Large banana-like leaves -->
  <ellipse cx="190" cy="130" rx="70" ry="28" fill="#4A7C3F" transform="rotate(-35 190 130)"/>
  <ellipse cx="320" cy="120" rx="70" ry="28" fill="#6B9E5C" transform="rotate(30 320 120)"/>
  <ellipse cx="256" cy="100" rx="65" ry="26" fill="#4A7C3F" transform="rotate(-5 256 100)"/>
  <!-- Leaf split marks -->
  <line x1="165" y1="105" x2="215" y2="155" stroke="white" stroke-width="2" opacity="0.3" transform="rotate(-35 190 130)"/>
  <line x1="295" y1="95" x2="345" y2="145" stroke="white" stroke-width="2" opacity="0.3" transform="rotate(30 320 120)"/>
  <!-- Bird of paradise flower -->
  <path d="M 300 150 L 340 120 L 360 100" stroke="#E8A530" stroke-width="5" fill="none" stroke-linecap="round"/>
  <path d="M 340 120 L 365 110 L 380 95" stroke="#E85B7A" stroke-width="4" fill="none" stroke-linecap="round"/>
  <path d="M 340 120 L 355 130 L 370 115" stroke="#5B8FE8" stroke-width="4" fill="none" stroke-linecap="round"/>
</svg>