<?xml version="1.0" encoding="UTF-8"?>
<svg width="200px" height="200px" viewBox="0 0 200 200" version="1.1" xmlns="http://www.w3.org/2000/svg">
  <g stroke="none" stroke-width="1" fill="none" fill-rule="evenodd">
    <!-- Pot -->
    <path d="M70,170 L65,190 L135,190 L130,170 Z" fill="#B26E63" />
    
    <!-- Main plant center -->
    <ellipse cx="100" cy="155" rx="25" ry="10" fill="#2E7D32" />
    
    <!-- Boston fern fronds - feathery, arching fronds -->
    <!-- Back Frond 1 - tallest, left arching -->
    <path d="M90,155 C75,145 50,120 30,110 C40,105 55,115 80,130 C105,145 120,155 90,155 Z" fill="#2E7D32" />
    <path d="M90,155 C75,145 50,120 30,110" stroke="#1B5E20" stroke-width="1" />
    
    <!-- Secondary veins/divisions -->
    <path d="M85,148 C75,143 65,138 55,133" stroke="#1B5E20" stroke-width="0.5" />
    <path d="M80,142 C70,137 60,132 50,127" stroke="#1B5E20" stroke-width="0.5" />
    <path d="M75,137 C65,132 55,127 45,122" stroke="#1B5E20" stroke-width="0.5" />
    <path d="M70,132 C60,127 50,122 40,117" stroke="#1B5E20" stroke-width="0.5" />
    <path d="M65,127 C55,122 45,117 35,112" stroke="#1B5E20" stroke-width="0.5" />
    
    <!-- Back Frond 2 - tall, right arching -->
    <path d="M110,155 C125,145 150,120 170,110 C160,105 145,115 120,130 C95,145 80,155 110,155 Z" fill="#2E7D32" />
    <path d="M110,155 C125,145 150,120 170,110" stroke="#1B5E20" stroke-width="1" />
    
    <!-- Secondary veins/divisions -->
    <path d="M115,148 C125,143 135,138 145,133" stroke="#1B5E20" stroke-width="0.5" />
    <path d="M120,142 C130,137 140,132 150,127" stroke="#1B5E20" stroke-width="0.5" />
    <path d="M125,137 C135,132 145,127 155,122" stroke="#1B5E20" stroke-width="0.5" />
    <path d="M130,132 C140,127 150,122 160,117" stroke="#1B5E20" stroke-width="0.5" />
    <path d="M135,127 C145,122 155,117 165,112" stroke="#1B5E20" stroke-width="0.5" />
    
    <!-- Middle Frond 1 - middle left -->
    <path d="M85,155 C70,140 40,115 20,105 C30,100 45,110 70,125 C90,140 105,155 85,155 Z" fill="#2E7D32" />
    <path d="M85,155 C70,140 40,115 20,105" stroke="#1B5E20" stroke-width="1" />
    
    <!-- Secondary veins/divisions -->
    <path d="M80,147 C70,142 60,137 50,132" stroke="#1B5E20" stroke-width="0.5" />
    <path d="M75,140 C65,135 55,130 45,125" stroke="#1B5E20" stroke-width="0.5" />
    <path d="M70,133 C60,128 50,123 40,118" stroke="#1B5E20" stroke-width="0.5" />
    <path d="M65,126 C55,121 45,116 35,111" stroke="#1B5E20" stroke-width="0.5" />
    <path d="M60,119 C50,114 40,109 30,104" stroke="#1B5E20" stroke-width="0.5" />
    
    <!-- Middle Frond 2 - middle right -->
    <path d="M115,155 C130,140 160,115 180,105 C170,100 155,110 130,125 C110,140 95,155 115,155 Z" fill="#2E7D32" />
    <path d="M115,155 C130,140 160,115 180,105" stroke="#1B5E20" stroke-width="1" />
    
    <!-- Secondary veins/divisions -->
    <path d="M120,147 C130,142 140,137 150,132" stroke="#1B5E20" stroke-width="0.5" />
    <path d="M125,140 C135,135 145,130 155,125" stroke="#1B5E20" stroke-width="0.5" />
    <path d="M130,133 C140,128 150,123 160,118" stroke="#1B5E20" stroke-width="0.5" />
    <path d="M135,126 C145,121 155,116 165,111" stroke="#1B5E20" stroke-width="0.5" />
    <path d="M140,119 C150,114 160,109 170,104" stroke="#1B5E20" stroke-width="0.5" />
    
    <!-- Front Frond 1 - front left -->
    <path d="M95,155 C80,135 50,120 25,115 C35,110 55,115 75,130 C95,145 105,155 95,155 Z" fill="#2E7D32" />
    <path d="M95,155 C80,135 50,120 25,115" stroke="#1B5E20" stroke-width="1" />
    
    <!-- Secondary veins/divisions -->
    <path d="M90,147 C80,142 70,137 60,132" stroke="#1B5E20" stroke-width="0.5" />
    <path d="M85,140 C75,135 65,130 55,125" stroke="#1B5E20" stroke-width="0.5" />
    <path d="M80,133 C70,128 60,123 50,118" stroke="#1B5E20" stroke-width="0.5" />
    <path d="M75,126 C65,121 55,116 45,111" stroke="#1B5E20" stroke-width="0.5" />
    <path d="M70,119 C60,114 50,109 40,104" stroke="#1B5E20" stroke-width="0.5" />
    
    <!-- Front Frond 2 - front right -->
    <path d="M105,155 C120,135 150,120 175,115 C165,110 145,115 125,130 C105,145 95,155 105,155 Z" fill="#2E7D32" />
    <path d="M105,155 C120,135 150,120 175,115" stroke="#1B5E20" stroke-width="1" />
    
    <!-- Secondary veins/divisions -->
    <path d="M110,147 C120,142 130,137 140,132" stroke="#1B5E20" stroke-width="0.5" />
    <path d="M115,140 C125,135 135,130 145,125" stroke="#1B5E20" stroke-width="0.5" />
    <path d="M120,133 C130,128 140,123 150,118" stroke="#1B5E20" stroke-width="0.5" />
    <path d="M125,126 C135,121 145,116 155,111" stroke="#1B5E20" stroke-width="0.5" />
    <path d="M130,119 C140,114 150,109 160,104" stroke="#1B5E20" stroke-width="0.5" />
    
    <!-- Low Frond 1 - bottom left -->
    <path d="M80,155 C65,150 40,145 20,145 C30,140 50,142 70,147 C90,152 95,155 80,155 Z" fill="#2E7D32" />
    <path d="M80,155 C65,150 40,145 20,145" stroke="#1B5E20" stroke-width="1" />
    
    <!-- Secondary veins/divisions -->
    <path d="M75,153 C65,152 55,151 45,150" stroke="#1B5E20" stroke-width="0.5" />
    <path d="M70,152 C60,151 50,149 40,148" stroke="#1B5E20" stroke-width="0.5" />
    <path d="M65,151 C55,150 45,148 35,147" stroke="#1B5E20" stroke-width="0.5" />
    <path d="M60,149 C50,148 40,147 30,146" stroke="#1B5E20" stroke-width="0.5" />
    <path d="M55,148 C45,147 35,146 25,145" stroke="#1B5E20" stroke-width="0.5" />
    
    <!-- Low Frond 2 - bottom right -->
    <path d="M120,155 C135,150 160,145 180,145 C170,140 150,142 130,147 C110,152 105,155 120,155 Z" fill="#2E7D32" />
    <path d="M120,155 C135,150 160,145 180,145" stroke="#1B5E20" stroke-width="1" />
    
    <!-- Secondary veins/divisions -->
    <path d="M125,153 C135,152 145,151 155,150" stroke="#1B5E20" stroke-width="0.5" />
    <path d="M130,152 C140,151 150,149 160,148" stroke="#1B5E20" stroke-width="0.5" />
    <path d="M135,151 C145,150 155,148 165,147" stroke="#1B5E20" stroke-width="0.5" />
    <path d="M140,149 C150,148 160,147 170,146" stroke="#1B5E20" stroke-width="0.5" />
    <path d="M145,148 C155,147 165,146 175,145" stroke="#1B5E20" stroke-width="0.5" />
  </g>
</svg>