<?xml version="1.0" encoding="UTF-8"?>
<svg width="200px" height="200px" viewBox="0 0 200 200" version="1.1" xmlns="http://www.w3.org/2000/svg">
  <g stroke="none" stroke-width="1" fill="none" fill-rule="evenodd">
    <!-- Pot -->
    <path d="M75,170 L70,190 L130,190 L125,170 Z" fill="#B26E63" />
    
    <!-- Main plant center -->
    <ellipse cx="100" cy="155" rx="20" ry="10" fill="#4D724D" />
    
    <!-- Calathea leaves - distinctive patterned oval leaves -->
    <!-- Leaf 1 - back left -->
    <path d="M85,155 C60,130 45,90 50,70 C55,65 65,70 75,80 C85,100 90,140 85,155 Z" fill="#4D724D" />
    <path d="M85,155 C60,130 45,90 50,70" stroke="#3C5F3C" stroke-width="1" />
    
    <!-- Leaf pattern - stripes/markings -->
    <path d="M65,140 C67,120 68,100 68,80" stroke="#A1CFAA" stroke-width="1.5" />
    <path d="M70,142 C72,122 73,102 73,82" stroke="#A1CFAA" stroke-width="1.5" />
    <path d="M75,144 C77,124 78,104 78,84" stroke="#A1CFAA" stroke-width="1.5" />
    <path d="M80,147 C82,127 83,107 83,87" stroke="#A1CFAA" stroke-width="1.5" />
    
    <!-- Leaf 2 - back right -->
    <path d="M115,155 C140,130 155,90 150,70 C145,65 135,70 125,80 C115,100 110,140 115,155 Z" fill="#4D724D" />
    <path d="M115,155 C140,130 155,90 150,70" stroke="#3C5F3C" stroke-width="1" />
    
    <!-- Leaf pattern - stripes/markings -->
    <path d="M135,140 C133,120 132,100 132,80" stroke="#A1CFAA" stroke-width="1.5" />
    <path d="M130,142 C128,122 127,102 127,82" stroke="#A1CFAA" stroke-width="1.5" />
    <path d="M125,144 C123,124 122,104 122,84" stroke="#A1CFAA" stroke-width="1.5" />
    <path d="M120,147 C118,127 117,107 117,87" stroke="#A1CFAA" stroke-width="1.5" />
    
    <!-- Leaf 3 - middle left -->
    <path d="M90,155 C65,135 40,110 35,85 C40,80 55,85 70,95 C85,105 95,140 90,155 Z" fill="#4D724D" />
    <path d="M90,155 C65,135 40,110 35,85" stroke="#3C5F3C" stroke-width="1" />
    
    <!-- Leaf pattern - stripes/markings -->
    <path d="M60,140 C62,125 63,110 64,95" stroke="#A1CFAA" stroke-width="1.5" />
    <path d="M65,142 C67,127 68,112 69,97" stroke="#A1CFAA" stroke-width="1.5" />
    <path d="M70,145 C72,130 73,115 74,100" stroke="#A1CFAA" stroke-width="1.5" />
    <path d="M75,147 C77,132 78,117 79,102" stroke="#A1CFAA" stroke-width="1.5" />
    <path d="M80,150 C82,135 83,120 84,105" stroke="#A1CFAA" stroke-width="1.5" />
    
    <!-- Leaf 4 - middle right -->
    <path d="M110,155 C135,135 160,110 165,85 C160,80 145,85 130,95 C115,105 105,140 110,155 Z" fill="#4D724D" />
    <path d="M110,155 C135,135 160,110 165,85" stroke="#3C5F3C" stroke-width="1" />
    
    <!-- Leaf pattern - stripes/markings -->
    <path d="M140,140 C138,125 137,110 136,95" stroke="#A1CFAA" stroke-width="1.5" />
    <path d="M135,142 C133,127 132,112 131,97" stroke="#A1CFAA" stroke-width="1.5" />
    <path d="M130,145 C128,130 127,115 126,100" stroke="#A1CFAA" stroke-width="1.5" />
    <path d="M125,147 C123,132 122,117 121,102" stroke="#A1CFAA" stroke-width="1.5" />
    <path d="M120,150 C118,135 117,120 116,105" stroke="#A1CFAA" stroke-width="1.5" />
    
    <!-- Leaf 5 - front left, showing purple underside -->
    <path d="M95,155 C75,140 60,115 55,100 C60,95 70,100 85,110 C95,120 100,140 95,155 Z" fill="#83537A" />
    <path d="M95,155 C75,140 60,115 55,100" stroke="#724868" stroke-width="1" />
    
    <!-- Leaf pattern - stripes/markings on purple -->
    <path d="M75,143 C77,133 78,123 79,113" stroke="#A175A1" stroke-width="1.5" />
    <path d="M80,145 C82,135 83,125 84,115" stroke="#A175A1" stroke-width="1.5" />
    <path d="M85,148 C87,138 88,128 89,118" stroke="#A175A1" stroke-width="1.5" />
    <path d="M90,150 C92,140 93,130 94,120" stroke="#A175A1" stroke-width="1.5" />
    
    <!-- Leaf 6 - front right, showing purple underside -->
    <path d="M105,155 C125,140 140,115 145,100 C140,95 130,100 115,110 C105,120 100,140 105,155 Z" fill="#83537A" />
    <path d="M105,155 C125,140 140,115 145,100" stroke="#724868" stroke-width="1" />
    
    <!-- Leaf pattern - stripes/markings on purple -->
    <path d="M125,143 C123,133 122,123 121,113" stroke="#A175A1" stroke-width="1.5" />
    <path d="M120,145 C118,135 117,125 116,115" stroke="#A175A1" stroke-width="1.5" />
    <path d="M115,148 C113,138 112,128 111,118" stroke="#A175A1" stroke-width="1.5" />
    <path d="M110,150 C108,140 107,130 106,120" stroke="#A175A1" stroke-width="1.5" />
    
    <!-- Center stems/petioles -->
    <path d="M85,155 C85,140 82,125 80,110" stroke="#3C5F3C" stroke-width="0.75" />
    <path d="M115,155 C115,140 118,125 120,110" stroke="#3C5F3C" stroke-width="0.75" />
    <path d="M90,155 C90,145 87,135 84,125" stroke="#3C5F3C" stroke-width="0.75" />
    <path d="M110,155 C110,145 113,135 116,125" stroke="#3C5F3C" stroke-width="0.75" />
    <path d="M95,155 C95,145 94,135 93,125" stroke="#724868" stroke-width="0.75" />
    <path d="M105,155 C105,145 106,135 107,125" stroke="#724868" stroke-width="0.75" />
  </g>
</svg>