<?xml version="1.0" encoding="UTF-8"?>
<svg width="200px" height="200px" viewBox="0 0 200 200" version="1.1" xmlns="http://www.w3.org/2000/svg">
  <g stroke="none" stroke-width="1" fill="none" fill-rule="evenodd">
    <!-- Pot -->
    <path d="M70,170 L65,190 L135,190 L130,170 Z" fill="#B26E63" />
    
    <!-- Central stems -->
    <path d="M100,170 L100,120" stroke="#5D8250" stroke-width="2" stroke-linecap="round" />
    <path d="M100,120 L80,70" stroke="#5D8250" stroke-width="2" stroke-linecap="round" />
    <path d="M100,120 L120,70" stroke="#5D8250" stroke-width="2" stroke-linecap="round" />
    <path d="M100,130 L60,100" stroke="#5D8250" stroke-width="2" stroke-linecap="round" />
    <path d="M100,130 L140,100" stroke="#5D8250" stroke-width="2" stroke-linecap="round" />
    <path d="M100,140 L70,125" stroke="#5D8250" stroke-width="2" stroke-linecap="round" />
    <path d="M100,140 L130,125" stroke="#5D8250" stroke-width="2" stroke-linecap="round" />
    <path d="M100,150 L85,145" stroke="#5D8250" stroke-width="2" stroke-linecap="round" />
    <path d="M100,150 L115,145" stroke="#5D8250" stroke-width="2" stroke-linecap="round" />
    
    <!-- Distinctive Calathea leaves with colorful patterns -->
    <!-- Leaf 1 - Top left large leaf -->
    <path d="M80,70 C60,60 45,50 50,30 C55,10 80,20 85,25 C90,30 95,55 80,70 Z" fill="#558B2F" />
    <path d="M80,70 C60,60 45,50 50,30" stroke="#3E691F" stroke-width="1" />
    <!-- Distinctive striped pattern -->
    <path d="M60,30 C70,35 80,40 85,45" stroke="#A7C796" stroke-width="1.5" />
    <path d="M55,40 C65,45 75,50 80,55" stroke="#A7C796" stroke-width="1.5" />
    <path d="M60,50 C70,55 80,60 85,65" stroke="#A7C796" stroke-width="1.5" />
    
    <!-- Leaf 2 - Top right large leaf -->
    <path d="M120,70 C140,60 155,50 150,30 C145,10 120,20 115,25 C110,30 105,55 120,70 Z" fill="#629C35" />
    <path d="M120,70 C140,60 155,50 150,30" stroke="#3E691F" stroke-width="1" />
    <!-- Distinctive striped pattern -->
    <path d="M140,30 C130,35 120,40 115,45" stroke="#A7C796" stroke-width="1.5" />
    <path d="M145,40 C135,45 125,50 120,55" stroke="#A7C796" stroke-width="1.5" />
    <path d="M140,50 C130,55 120,60 115,65" stroke="#A7C796" stroke-width="1.5" />
    
    <!-- Leaf 3 - Left side -->
    <path d="M60,100 C40,95 30,85 35,70 C40,55 60,65 65,70 C70,75 75,95 60,100 Z" fill="#558B2F" />
    <path d="M60,100 C40,95 30,85 35,70" stroke="#3E691F" stroke-width="1" />
    <!-- Distinctive striped pattern -->
    <path d="M45,70 C50,75 55,80 60,80" stroke="#A7C796" stroke-width="1.5" />
    <path d="M42,80 C48,85 55,87 60,90" stroke="#A7C796" stroke-width="1.5" />
    
    <!-- Leaf 4 - Right side -->
    <path d="M140,100 C160,95 170,85 165,70 C160,55 140,65 135,70 C130,75 125,95 140,100 Z" fill="#629C35" />
    <path d="M140,100 C160,95 170,85 165,70" stroke="#3E691F" stroke-width="1" />
    <!-- Distinctive striped pattern -->
    <path d="M155,70 C150,75 145,80 140,80" stroke="#A7C796" stroke-width="1.5" />
    <path d="M158,80 C152,85 145,87 140,90" stroke="#A7C796" stroke-width="1.5" />
    
    <!-- Small lower leaves -->
    <!-- Left side -->
    <path d="M70,125 C55,123 45,118 50,110 C55,102 65,105 70,110 C75,115 75,125 70,125 Z" fill="#689F38" />
    <path d="M70,125 C55,123 45,118 50,110" stroke="#3E691F" stroke-width="0.5" />
    <path d="M55,110 C60,112 65,115 70,118" stroke="#A7C796" stroke-width="1" />
    
    <!-- Right side -->
    <path d="M130,125 C145,123 155,118 150,110 C145,102 135,105 130,110 C125,115 125,125 130,125 Z" fill="#689F38" />
    <path d="M130,125 C145,123 155,118 150,110" stroke="#3E691F" stroke-width="0.5" />
    <path d="M145,110 C140,112 135,115 130,118" stroke="#A7C796" stroke-width="1" />
    
    <!-- Very small bottom leaves -->
    <path d="M85,145 C75,143 70,140 72,135 C74,130 80,132 83,135 C86,138 85,145 85,145 Z" fill="#7CB342" />
    <path d="M115,145 C125,143 130,140 128,135 C126,130 120,132 117,135 C114,138 115,145 115,145 Z" fill="#7CB342" />
    
    <!-- Purple undersides hints -->
    <path d="M83,30 C75,40 70,50 75,60" stroke="#8E48A3" stroke-width="0.5" opacity="0.6" />
    <path d="M117,30 C125,40 130,50 125,60" stroke="#8E48A3" stroke-width="0.5" opacity="0.6" />
    <path d="M63,75 C55,80 50,85 53,90" stroke="#8E48A3" stroke-width="0.5" opacity="0.6" />
    <path d="M137,75 C145,80 150,85 147,90" stroke="#8E48A3" stroke-width="0.5" opacity="0.6" />
  </g>
</svg>