<svg width="512" height="512" viewBox="0 0 512 512" xmlns="http://www.w3.org/2000/svg">
  <!-- Pot -->
  <path d="M 170 370 L 342 370 L 318 460 L 194 460 Z" fill="#A67563"/>
  <rect x="162" y="358" width="188" height="16" rx="3" fill="#B88A7A"/>
  <!-- Broad upright leaves -->
  <ellipse cx="200" cy="220" rx="35" ry="130" fill="#3D6B30" transform="rotate(-12 200 220)"/>
  <ellipse cx="240" cy="200" rx="32" ry="140" fill="#4A7C3F" transform="rotate(-4 240 200)"/>
  <ellipse cx="275" cy="195" rx="33" ry="145" fill="#3D6B30" transform="rotate(3 275 195)"/>
  <ellipse cx="310" cy="210" rx="34" ry="135" fill="#4A7C3F" transform="rotate(10 310 210)"/>
  <ellipse cx="256" cy="205" rx="30" ry="150" fill="#4A7C3F" transform="rotate(0 256 205)"/>
  <!-- Leaf veins (subtle) -->
  <line x1="240" y1="100" x2="240" y2="340" stroke="#3D6B30" stroke-width="2" opacity="0.4" transform="rotate(-4 240 200)"/>
  <line x1="275" y1="90" x2="275" y2="340" stroke="#3D6B30" stroke-width="2" opacity="0.4" transform="rotate(3 275 195)"/>
</svg>