<?xml version="1.0" encoding="UTF-8"?>
<svg width="200px" height="200px" viewBox="0 0 200 200" version="1.1" xmlns="http://www.w3.org/2000/svg">
  <g stroke="none" stroke-width="1" fill="none" fill-rule="evenodd">
    <!-- Pot -->
    <path d="M75,170 L70,190 L130,190 L125,170 Z" fill="#B26E63" />
    
    <!-- Main stem -->
    <path d="M100,170 L100,120" stroke="#8B4513" stroke-width="2" stroke-linecap="round" />
    
    <!-- Chinese money plant leaves - distinctive round coin-shaped leaves -->
    <!-- Top center leaf -->
    <circle cx="100" cy="85" r="15" fill="#4C9A61" />
    <path d="M100,85 C100,85 100,105 100,120" stroke="#8B4513" stroke-width="1" />
    <path d="M100,85 C100,85 90,90 85,95" stroke="#3A7D4C" stroke-width="0.5" />
    <path d="M100,85 C100,85 110,90 115,95" stroke="#3A7D4C" stroke-width="0.5" />
    <path d="M100,85 C100,85 105,80 110,75" stroke="#3A7D4C" stroke-width="0.5" />
    <path d="M100,85 C100,85 95,80 90,75" stroke="#3A7D4C" stroke-width="0.5" />
    <path d="M100,85 C100,85 100,75 100,70" stroke="#3A7D4C" stroke-width="0.5" />
    
    <!-- Middle left leaf 1 -->
    <circle cx="85" cy="95" r="15" fill="#4C9A61" />
    <path d="M85,95 C85,95 95,100 100,120" stroke="#8B4513" stroke-width="1" />
    <path d="M85,95 C85,95 75,100 70,105" stroke="#3A7D4C" stroke-width="0.5" />
    <path d="M85,95 C85,95 95,100 100,105" stroke="#3A7D4C" stroke-width="0.5" />
    <path d="M85,95 C85,95 90,90 95,85" stroke="#3A7D4C" stroke-width="0.5" />
    <path d="M85,95 C85,95 80,90 75,85" stroke="#3A7D4C" stroke-width="0.5" />
    <path d="M85,95 C85,95 85,85 85,80" stroke="#3A7D4C" stroke-width="0.5" />
    
    <!-- Middle right leaf 1 -->
    <circle cx="115" cy="95" r="15" fill="#4C9A61" />
    <path d="M115,95 C115,95 105,100 100,120" stroke="#8B4513" stroke-width="1" />
    <path d="M115,95 C115,95 125,100 130,105" stroke="#3A7D4C" stroke-width="0.5" />
    <path d="M115,95 C115,95 105,100 100,105" stroke="#3A7D4C" stroke-width="0.5" />
    <path d="M115,95 C115,95 110,90 105,85" stroke="#3A7D4C" stroke-width="0.5" />
    <path d="M115,95 C115,95 120,90 125,85" stroke="#3A7D4C" stroke-width="0.5" />
    <path d="M115,95 C115,95 115,85 115,80" stroke="#3A7D4C" stroke-width="0.5" />
    
    <!-- Far left leaf -->
    <circle cx="70" cy="105" r="15" fill="#4C9A61" />
    <path d="M70,105 C70,105 85,110 100,120" stroke="#8B4513" stroke-width="1" />
    <path d="M70,105 C70,105 60,110 55,115" stroke="#3A7D4C" stroke-width="0.5" />
    <path d="M70,105 C70,105 80,110 85,115" stroke="#3A7D4C" stroke-width="0.5" />
    <path d="M70,105 C70,105 75,100 80,95" stroke="#3A7D4C" stroke-width="0.5" />
    <path d="M70,105 C70,105 65,100 60,95" stroke="#3A7D4C" stroke-width="0.5" />
    <path d="M70,105 C70,105 70,95 70,90" stroke="#3A7D4C" stroke-width="0.5" />
    
    <!-- Far right leaf -->
    <circle cx="130" cy="105" r="15" fill="#4C9A61" />
    <path d="M130,105 C130,105 115,110 100,120" stroke="#8B4513" stroke-width="1" />
    <path d="M130,105 C130,105 140,110 145,115" stroke="#3A7D4C" stroke-width="0.5" />
    <path d="M130,105 C130,105 120,110 115,115" stroke="#3A7D4C" stroke-width="0.5" />
    <path d="M130,105 C130,105 125,100 120,95" stroke="#3A7D4C" stroke-width="0.5" />
    <path d="M130,105 C130,105 135,100 140,95" stroke="#3A7D4C" stroke-width="0.5" />
    <path d="M130,105 C130,105 130,95 130,90" stroke="#3A7D4C" stroke-width="0.5" />
    
    <!-- Bottom left leaf -->
    <circle cx="85" cy="130" r="15" fill="#4C9A61" />
    <path d="M85,130 C85,130 95,130 100,130" stroke="#8B4513" stroke-width="1" />
    <path d="M85,130 C85,130 75,135 70,140" stroke="#3A7D4C" stroke-width="0.5" />
    <path d="M85,130 C85,130 95,135 100,140" stroke="#3A7D4C" stroke-width="0.5" />
    <path d="M85,130 C85,130 90,125 95,120" stroke="#3A7D4C" stroke-width="0.5" />
    <path d="M85,130 C85,130 80,125 75,120" stroke="#3A7D4C" stroke-width="0.5" />
    <path d="M85,130 C85,130 85,120 85,115" stroke="#3A7D4C" stroke-width="0.5" />
    
    <!-- Bottom right leaf -->
    <circle cx="115" cy="130" r="15" fill="#4C9A61" />
    <path d="M115,130 C115,130 105,130 100,130" stroke="#8B4513" stroke-width="1" />
    <path d="M115,130 C115,130 125,135 130,140" stroke="#3A7D4C" stroke-width="0.5" />
    <path d="M115,130 C115,130 105,135 100,140" stroke="#3A7D4C" stroke-width="0.5" />
    <path d="M115,130 C115,130 110,125 105,120" stroke="#3A7D4C" stroke-width="0.5" />
    <path d="M115,130 C115,130 120,125 125,120" stroke="#3A7D4C" stroke-width="0.5" />
    <path d="M115,130 C115,130 115,120 115,115" stroke="#3A7D4C" stroke-width="0.5" />
    
    <!-- Small baby pup emerging -->
    <path d="M90,155 L90,140" stroke="#8B4513" stroke-width="1" stroke-linecap="round" />
    <circle cx="90" cy="135" r="5" fill="#4C9A61" />
    <path d="M90,135 C90,135 87,133 85,132" stroke="#3A7D4C" stroke-width="0.5" />
    <path d="M90,135 C90,135 93,133 95,132" stroke="#3A7D4C" stroke-width="0.5" />
    
    <!-- Small baby pup emerging 2 -->
    <path d="M110,155 L110,143" stroke="#8B4513" stroke-width="1" stroke-linecap="round" />
    <circle cx="110" cy="138" r="5" fill="#4C9A61" />
    <path d="M110,138 C110,138 107,136 105,135" stroke="#3A7D4C" stroke-width="0.5" />
    <path d="M110,138 C110,138 113,136 115,135" stroke="#3A7D4C" stroke-width="0.5" />
    
    <!-- Highlight/shine on leaves -->
    <circle cx="95" cy="85" r="2" fill="#D4F5DE" />
    <circle cx="80" cy="95" r="2" fill="#D4F5DE" />
    <circle cx="120" cy="95" r="2" fill="#D4F5DE" />
    <circle cx="65" cy="105" r="2" fill="#D4F5DE" />
    <circle cx="135" cy="105" r="2" fill="#D4F5DE" />
    <circle cx="80" cy="130" r="2" fill="#D4F5DE" />
    <circle cx="120" cy="130" r="2" fill="#D4F5DE" />
  </g>
</svg>