<svg width="512" height="512" viewBox="0 0 512 512" xmlns="http://www.w3.org/2000/svg">
  <!-- Pot -->
  <path d="M 190 370 L 322 370 L 302 450 L 210 450 Z" fill="#A67563"/>
  <rect x="182" y="358" width="148" height="16" rx="3" fill="#B88A7A"/>
  <!-- Thick stems -->
  <line x1="235" y1="365" x2="215" y2="200" stroke="#3D7A32" stroke-width="7" stroke-linecap="round"/>
  <line x1="270" y1="365" x2="295" y2="190" stroke="#3D7A32" stroke-width="7" stroke-linecap="round"/>
  <line x1="252" y1="365" x2="252" y2="180" stroke="#3D7A32" stroke-width="7" stroke-linecap="round"/>
  <!-- Large oval leaves -->
  <ellipse cx="215" cy="170" rx="50" ry="35" fill="#4A7C3F" transform="rotate(-20 215 170)"/>
  <ellipse cx="295" cy="160" rx="50" ry="35" fill="#4A7C3F" transform="rotate(15 295 160)"/>
  <ellipse cx="252" cy="145" rx="55" ry="38" fill="#6B9E5C" transform="rotate(-5 252 145)"/>
  <!-- Cream/yellow variegation patterns -->
  <ellipse cx="215" cy="165" rx="28" ry="18" fill="#D4DBA0" transform="rotate(-20 215 165)" opacity="0.7"/>
  <ellipse cx="295" cy="155" rx="28" ry="18" fill="#D4DBA0" transform="rotate(15 295 155)" opacity="0.7"/>
  <ellipse cx="252" cy="140" rx="32" ry="20" fill="#D4DBA0" transform="rotate(-5 252 140)" opacity="0.7"/>
  <!-- Center veins -->
  <line x1="215" y1="140" x2="215" y2="200" stroke="#3D6B30" stroke-width="2" opacity="0.5" transform="rotate(-20 215 170)"/>
  <line x1="295" y1="130" x2="295" y2="190" stroke="#3D6B30" stroke-width="2" opacity="0.5" transform="rotate(15 295 160)"/>
  <line x1="252" y1="112" x2="252" y2="178" stroke="#3D6B30" stroke-width="2" opacity="0.5" transform="rotate(-5 252 145)"/>
  <!-- Lower leaves -->
  <ellipse cx="225" cy="290" rx="42" ry="30" fill="#4A7C3F" transform="rotate(-15 225 290)"/>
  <ellipse cx="225" cy="287" rx="24" ry="15" fill="#D4DBA0" transform="rotate(-15 225 287)" opacity="0.6"/>
  <ellipse cx="280" cy="285" rx="42" ry="30" fill="#6B9E5C" transform="rotate(12 280 285)"/>
  <ellipse cx="280" cy="282" rx="24" ry="15" fill="#D4DBA0" transform="rotate(12 280 282)" opacity="0.6"/>
</svg>