<svg width="512" height="512" viewBox="0 0 512 512" xmlns="http://www.w3.org/2000/svg">
  <!-- Pot -->
  <path d="M 190 370 L 322 370 L 302 450 L 210 450 Z" fill="#A67563"/>
  <rect x="182" y="358" width="148" height="16" rx="3" fill="#B88A7A"/>
  <!-- Trunk -->
  <rect x="247" y="200" width="18" height="170" fill="#8B6F47" rx="4"/>
  <!-- Top leaves radiating out -->
  <path d="M 256 210 C 240 170 200 120 170 70" stroke="#4A7C3F" stroke-width="10" fill="none" stroke-linecap="round"/>
  <path d="M 256 210 C 272 170 312 120 342 70" stroke="#4A7C3F" stroke-width="10" fill="none" stroke-linecap="round"/>
  <path d="M 256 210 C 230 170 180 140 140 120" stroke="#6B9E5C" stroke-width="9" fill="none" stroke-linecap="round"/>
  <path d="M 256 210 C 282 170 332 140 372 120" stroke="#6B9E5C" stroke-width="9" fill="none" stroke-linecap="round"/>
  <path d="M 256 210 C 248 170 240 120 236 60" stroke="#3D7A32" stroke-width="10" fill="none" stroke-linecap="round"/>
  <path d="M 256 210 C 264 170 272 120 276 60" stroke="#3D7A32" stroke-width="10" fill="none" stroke-linecap="round"/>
  <!-- Drooping lower leaves -->
  <path d="M 256 240 C 230 250 180 260 140 280" stroke="#6B9E5C" stroke-width="8" fill="none" stroke-linecap="round"/>
  <path d="M 256 240 C 282 250 332 260 372 280" stroke="#6B9E5C" stroke-width="8" fill="none" stroke-linecap="round"/>
</svg>