<svg width="512" height="512" viewBox="0 0 512 512" xmlns="http://www.w3.org/2000/svg">
  <!-- Pot (small terracotta) -->
  <path d="M 196 340 L 316 340 L 300 410 L 212 410 Z" fill="#A67563"/>
  <rect x="190" y="328" width="132" height="16" rx="3" fill="#B88A7A"/>
  <!-- Outer ring of leaves -->
  <ellipse cx="256" cy="310" rx="20" ry="50" fill="#7CAF8B" transform="rotate(0 256 310)"/>
  <ellipse cx="256" cy="310" rx="20" ry="50" fill="#8BC09A" transform="rotate(45 256 310)"/>
  <ellipse cx="256" cy="310" rx="20" ry="50" fill="#7CAF8B" transform="rotate(90 256 310)"/>
  <ellipse cx="256" cy="310" rx="20" ry="50" fill="#8BC09A" transform="rotate(135 256 310)"/>
  <!-- Middle ring -->
  <ellipse cx="256" cy="305" rx="16" ry="38" fill="#6B9E7C" transform="rotate(22 256 305)"/>
  <ellipse cx="256" cy="305" rx="16" ry="38" fill="#7CAF8B" transform="rotate(67 256 305)"/>
  <ellipse cx="256" cy="305" rx="16" ry="38" fill="#6B9E7C" transform="rotate(112 256 305)"/>
  <ellipse cx="256" cy="305" rx="16" ry="38" fill="#7CAF8B" transform="rotate(157 256 305)"/>
  <!-- Inner rosette -->
  <ellipse cx="256" cy="302" rx="12" ry="26" fill="#5C8E6C" transform="rotate(10 256 302)"/>
  <ellipse cx="256" cy="302" rx="12" ry="26" fill="#6B9E7C" transform="rotate(55 256 302)"/>
  <ellipse cx="256" cy="302" rx="12" ry="26" fill="#5C8E6C" transform="rotate(100 256 302)"/>
  <ellipse cx="256" cy="302" rx="12" ry="26" fill="#6B9E7C" transform="rotate(145 256 302)"/>
  <!-- Center bud -->
  <circle cx="256" cy="300" r="10" fill="#5C8E6C"/>
  <!-- Leaf tips (pinkish, characteristic of echeveria) -->
  <circle cx="256" cy="260" r="4" fill="#D4A0A0" opacity="0.7"/>
  <circle cx="290" cy="275" r="4" fill="#D4A0A0" opacity="0.7"/>
  <circle cx="222" cy="275" r="4" fill="#D4A0A0" opacity="0.7"/>
  <circle cx="296" cy="310" r="4" fill="#D4A0A0" opacity="0.7"/>
  <circle cx="216" cy="310" r="4" fill="#D4A0A0" opacity="0.7"/>
</svg>