<?xml version="1.0" encoding="UTF-8"?>
<svg width="200px" height="200px" viewBox="0 0 200 200" version="1.1" xmlns="http://www.w3.org/2000/svg">
  <g stroke="none" stroke-width="1" fill="none" fill-rule="evenodd">
    <!-- Pot -->
    <path d="M75,170 L70,190 L130,190 L125,170 Z" fill="#B26E63" />
    
    <!-- Stem/trunk -->
    <path d="M100,170 C100,160 102,140 105,120 C108,100 110,95 112,80 C114,65 115,60 112,45" stroke="#8B4513" stroke-width="5" stroke-linecap="round" />
    <path d="M105,135 C110,135 115,133 120,130" stroke="#8B4513" stroke-width="3" stroke-linecap="round" />
    <path d="M105,120 C110,120 115,118 125,115" stroke="#8B4513" stroke-width="3" stroke-linecap="round" />
    <path d="M112,90 C115,90 120,88 127,85" stroke="#8B4513" stroke-width="3" stroke-linecap="round" />
    <path d="M112,70 C115,70 118,68 125,65" stroke="#8B4513" stroke-width="3" stroke-linecap="round" />
    <path d="M112,55 C107,57 100,58 90,60" stroke="#8B4513" stroke-width="3" stroke-linecap="round" />
    
    <!-- Fiddle-shaped leaves -->
    <!-- Lower right leaf -->
    <path d="M120,130 C130,125 150,123 160,115 C165,110 170,100 165,90 C160,80 145,75 130,80 C125,82 122,85 120,90 C118,100 118,120 120,130 Z" fill="#4C7F3D" />
    <path d="M120,130 C130,125 150,123 160,115 C165,110 170,100 165,90" stroke="#3D6E36" stroke-width="1" />
    <path d="M142,105 C140,95 135,85 130,80" stroke="#3D6E36" stroke-width="1" />
    <path d="M130,80 C125,82 122,85 120,90" stroke="#3D6E36" stroke-width="1" />
    
    <!-- Middle right leaf -->
    <path d="M125,115 C135,110 155,108 165,100 C170,95 175,85 170,75 C165,65 150,60 135,65 C130,67 127,70 125,75 C123,85 123,105 125,115 Z" fill="#4C7F3D" />
    <path d="M125,115 C135,110 155,108 165,100 C170,95 175,85 170,75" stroke="#3D6E36" stroke-width="1" />
    <path d="M147,90 C145,80 140,70 135,65" stroke="#3D6E36" stroke-width="1" />
    <path d="M135,65 C130,67 127,70 125,75" stroke="#3D6E36" stroke-width="1" />
    
    <!-- Upper right leaf -->
    <path d="M127,85 C137,80 157,78 167,70 C172,65 177,55 172,45 C167,35 152,30 137,35 C132,37 129,40 127,45 C125,55 125,75 127,85 Z" fill="#4C7F3D" />
    <path d="M127,85 C137,80 157,78 167,70 C172,65 177,55 172,45" stroke="#3D6E36" stroke-width="1" />
    <path d="M149,60 C147,50 142,40 137,35" stroke="#3D6E36" stroke-width="1" />
    <path d="M137,35 C132,37 129,40 127,45" stroke="#3D6E36" stroke-width="1" />
    
    <!-- Top right leaf -->
    <path d="M125,65 C135,60 155,58 165,50 C170,45 175,35 170,25 C165,15 150,10 135,15 C130,17 127,20 125,25 C123,35 123,55 125,65 Z" fill="#4C7F3D" />
    <path d="M125,65 C135,60 155,58 165,50 C170,45 175,35 170,25" stroke="#3D6E36" stroke-width="1" />
    <path d="M147,40 C145,30 140,20 135,15" stroke="#3D6E36" stroke-width="1" />
    <path d="M135,15 C130,17 127,20 125,25" stroke="#3D6E36" stroke-width="1" />
    
    <!-- Top left leaf -->
    <path d="M90,60 C80,55 60,53 50,45 C45,40 40,30 45,20 C50,10 65,5 80,10 C85,12 88,15 90,20 C92,30 92,50 90,60 Z" fill="#4C7F3D" />
    <path d="M90,60 C80,55 60,53 50,45 C45,40 40,30 45,20" stroke="#3D6E36" stroke-width="1" />
    <path d="M68,35 C70,25 75,15 80,10" stroke="#3D6E36" stroke-width="1" />
    <path d="M80,10 C85,12 88,15 90,20" stroke="#3D6E36" stroke-width="1" />
    
    <!-- Veins on leaves -->
    <path d="M142,105 C145,100 148,95 150,90 C152,85 153,80 154,75" stroke="#3D6E36" stroke-width="1" />
    <path d="M147,90 C150,85 153,80 155,75 C157,70 158,65 159,60" stroke="#3D6E36" stroke-width="1" />
    <path d="M149,60 C152,55 155,50 157,45 C159,40 160,35 161,30" stroke="#3D6E36" stroke-width="1" />
    <path d="M147,40 C150,35 153,30 155,25 C157,20 158,15 159,10" stroke="#3D6E36" stroke-width="1" />
    <path d="M68,35 C66,30 63,25 60,20 C57,15 54,10 51,5" stroke="#3D6E36" stroke-width="1" />
  </g>
</svg>