<svg width="512" height="512" viewBox="0 0 512 512" xmlns="http://www.w3.org/2000/svg">
  <rect width="512" height="512" fill="white"/>
  <!-- Pot (small, round) -->
  <path d="M 196 340 L 316 340 L 300 410 L 212 410 Z" fill="#A67563"/>
  <rect x="190" y="328" width="132" height="16" rx="3" fill="#B88A7A"/>
  <!-- Rosette leaves -->
  <ellipse cx="256" cy="280" rx="22" ry="70" fill="#4A7C3F" transform="rotate(0 256 280)"/>
  <ellipse cx="256" cy="280" rx="20" ry="65" fill="#6B9E5C" transform="rotate(30 256 280)"/>
  <ellipse cx="256" cy="280" rx="20" ry="65" fill="#4A7C3F" transform="rotate(60 256 280)"/>
  <ellipse cx="256" cy="280" rx="22" ry="70" fill="#6B9E5C" transform="rotate(90 256 280)"/>
  <ellipse cx="256" cy="280" rx="20" ry="65" fill="#4A7C3F" transform="rotate(120 256 280)"/>
  <ellipse cx="256" cy="280" rx="20" ry="65" fill="#6B9E5C" transform="rotate(150 256 280)"/>
  <!-- Center rosette (darker) -->
  <circle cx="256" cy="280" r="18" fill="#3D6B30"/>
  <!-- White stripes on leaves (characteristic of Haworthia) -->
  <line x1="256" y1="220" x2="256" y2="240" stroke="white" stroke-width="3" opacity="0.6"/>
  <line x1="248" y1="225" x2="248" y2="245" stroke="white" stroke-width="2" opacity="0.5"/>
  <line x1="264" y1="225" x2="264" y2="245" stroke="white" stroke-width="2" opacity="0.5"/>
  <line x1="290" y1="250" x2="310" y2="255" stroke="white" stroke-width="2" opacity="0.5"/>
  <line x1="222" y1="250" x2="202" y2="255" stroke="white" stroke-width="2" opacity="0.5"/>
</svg>