<?xml version="1.0" encoding="UTF-8"?>
<svg width="200px" height="200px" viewBox="0 0 200 200" version="1.1" xmlns="http://www.w3.org/2000/svg">
  <g stroke="none" stroke-width="1" fill="none" fill-rule="evenodd">
    <!-- Pot -->
    <path d="M75,160 L60,190 L140,190 L125,160 Z" fill="#B26E63" />
    
    <!-- Main stem -->
    <path d="M100,160 L100,100" stroke="#7A5548" stroke-width="4" stroke-linecap="round" />
    
    <!-- Branches -->
    <path d="M100,110 L80,85" stroke="#7A5548" stroke-width="3" stroke-linecap="round" />
    <path d="M100,120 L120,95" stroke="#7A5548" stroke-width="3" stroke-linecap="round" />
    <path d="M100,130 L75,115" stroke="#7A5548" stroke-width="3" stroke-linecap="round" />
    <path d="M100,140 L125,125" stroke="#7A5548" stroke-width="3" stroke-linecap="round" />
    
    <!-- Leaves -->
    <!-- Left branch leaves -->
    <ellipse cx="70" cy="80" rx="15" ry="10" fill="#4CAF50" transform="rotate(-15 70 80)" />
    <ellipse cx="60" cy="75" rx="12" ry="8" fill="#4CAF50" transform="rotate(-30 60 75)" />
    <ellipse cx="85" cy="75" rx="12" ry="8" fill="#4CAF50" transform="rotate(10 85 75)" />
    
    <!-- Right branch leaves -->
    <ellipse cx="130" cy="90" rx="15" ry="10" fill="#4CAF50" transform="rotate(15 130 90)" />
    <ellipse cx="115" cy="85" rx="12" ry="8" fill="#4CAF50" transform="rotate(30 115 85)" />
    <ellipse cx="140" cy="100" rx="12" ry="8" fill="#4CAF50" transform="rotate(-10 140 100)" />
    
    <!-- Middle left leaves -->
    <ellipse cx="65" cy="115" rx="14" ry="9" fill="#4CAF50" transform="rotate(-10 65 115)" />
    <ellipse cx="55" cy="105" rx="10" ry="7" fill="#4CAF50" transform="rotate(-25 55 105)" />
    
    <!-- Middle right leaves -->
    <ellipse cx="135" cy="125" rx="14" ry="9" fill="#4CAF50" transform="rotate(10 135 125)" />
    <ellipse cx="145" cy="115" rx="10" ry="7" fill="#4CAF50" transform="rotate(25 145 115)" />
    
    <!-- Top leaves -->
    <ellipse cx="100" cy="90" rx="12" ry="9" fill="#4CAF50" transform="rotate(0 100 90)" />
    <ellipse cx="100" cy="80" rx="10" ry="7" fill="#4CAF50" transform="rotate(0 100 80)" />
  </g>
</svg>