<svg width="512" height="512" viewBox="0 0 512 512" xmlns="http://www.w3.org/2000/svg">
  <!-- Pot (small) -->
  <path d="M 196 350 L 316 350 L 300 430 L 212 430 Z" fill="#A67563"/>
  <rect x="190" y="338" width="132" height="16" rx="3" fill="#B88A7A"/>
  <!-- Short stems -->
  <line x1="230" y1="345" x2="220" y2="280" stroke="#3D7A32" stroke-width="5" stroke-linecap="round"/>
  <line x1="256" y1="345" x2="256" y2="260" stroke="#3D7A32" stroke-width="5" stroke-linecap="round"/>
  <line x1="280" y1="345" x2="290" y2="275" stroke="#3D7A32" stroke-width="5" stroke-linecap="round"/>
  <line x1="245" y1="345" x2="235" y2="300" stroke="#3D7A32" stroke-width="4" stroke-linecap="round"/>
  <line x1="268" y1="345" x2="278" y2="295" stroke="#3D7A32" stroke-width="4" stroke-linecap="round"/>
  <!-- Rounded thick leaves -->
  <ellipse cx="220" cy="265" rx="32" ry="24" fill="#4A7C3F" transform="rotate(-10 220 265)"/>
  <ellipse cx="256" cy="245" rx="35" ry="26" fill="#6B9E5C"/>
  <ellipse cx="290" cy="260" rx="32" ry="24" fill="#4A7C3F" transform="rotate(10 290 260)"/>
  <ellipse cx="235" cy="290" rx="28" ry="20" fill="#6B9E5C" transform="rotate(-8 235 290)"/>
  <ellipse cx="278" cy="285" rx="28" ry="20" fill="#6B9E5C" transform="rotate(8 278 285)"/>
  <!-- Leaf stripes (watermelon peperomia style) -->
  <path d="M 256 225 C 256 235 256 255 256 265" stroke="#3D6B30" stroke-width="2" opacity="0.5"/>
  <path d="M 245 228 C 242 240 240 258 238 268" stroke="#3D6B30" stroke-width="2" opacity="0.5"/>
  <path d="M 267 228 C 270 240 272 258 274 268" stroke="#3D6B30" stroke-width="2" opacity="0.5"/>
</svg>