<?xml version="1.0" encoding="UTF-8"?>
<svg width="800px" height="800px" viewBox="0 0 800 800" version="1.1" xmlns="http://www.w3.org/2000/svg">
    <title>Plant Silhouette</title>
    <g stroke="none" fill="none">
        <rect fill="#f0f4f0" x="0" y="0" width="800" height="800"></rect>
        <g transform="translate(160, 110)" fill="#4A7C59" fill-opacity="0.7">
            <path d="M240,500 C240,500 120,450 120,300 C120,150 240,100 240,100 C240,100 360,150 360,300 C360,450 240,500 240,500 Z"></path>
            <path d="M240,100 C240,100 200,80 180,40 C160,0 240,-20 240,-20 C240,-20 320,0 300,40 C280,80 240,100 240,100 Z"></path>
            <path d="M300,230 C300,230 360,180 420,180 C480,180 440,280 440,280 C440,280 380,280 340,300 C300,320 300,230 300,230 Z"></path>
            <path d="M180,230 C180,230 120,180 60,180 C0,180 40,280 40,280 C40,280 100,280 140,300 C180,320 180,230 180,230 Z"></path>
            <path d="M240,580 L240,500 L240,580 Z"></path>
        </g>
        <!-- Pot -->
        <g transform="translate(285, 680)">
            <path d="M0,0 L230,0 L200,-100 L30,-100 Z" fill="#CD9777"></path>
        </g>
        <g transform="translate(315, 590)">
            <path d="M0,0 L170,0 L165,-10 L5,-10 Z" fill="#8C5A3C"></path>
        </g>
    </g>
</svg>