<?xml version="1.0" encoding="UTF-8"?>
<svg width="200px" height="200px" viewBox="0 0 200 200" version="1.1" xmlns="http://www.w3.org/2000/svg">
  <g stroke="none" stroke-width="1" fill="none" fill-rule="evenodd">
    <!-- Hanging pot -->
    <path d="M80,60 L70,80 L130,80 L120,60 Z" fill="#B26E63" />
    
    <!-- Vines -->
    <path d="M85,80 C70,100 60,120 80,140 C100,160 110,180 95,190" stroke="#4C7F3D" stroke-width="2" stroke-linecap="round" />
    <path d="M100,80 C80,100 90,130 110,150 C130,170 120,185 110,190" stroke="#4C7F3D" stroke-width="2" stroke-linecap="round" />
    <path d="M115,80 C130,100 140,120 120,140 C100,160 90,180 105,190" stroke="#4C7F3D" stroke-width="2" stroke-linecap="round" />
    
    <!-- Leaves on left vine -->
    <path d="M77,95 C72,90 65,91 62,95 C59,99 62,108 70,107 C78,106 82,100 77,95 Z" fill="#83BD75" />
    <path d="M72,95 C67,90 60,91 57,95 C54,99 57,108 65,107 C73,106 77,100 72,95 Z" fill="#D4EBC7" fill-opacity="0.7" />
    
    <path d="M65,115 C60,110 53,111 50,115 C47,119 50,128 58,127 C66,126 70,120 65,115 Z" fill="#83BD75" />
    
    <path d="M85,125 C80,120 73,121 70,125 C67,129 70,138 78,137 C86,136 90,130 85,125 Z" fill="#83BD75" />
    <path d="M80,125 C75,120 68,121 65,125 C62,129 65,138 73,137 C81,136 85,130 80,125 Z" fill="#D4EBC7" fill-opacity="0.7" />
    
    <path d="M90,155 C85,150 78,151 75,155 C72,159 75,168 83,167 C91,166 95,160 90,155 Z" fill="#83BD75" />
    
    <path d="M95,175 C90,170 83,171 80,175 C77,179 80,188 88,187 C96,186 100,180 95,175 Z" fill="#83BD75" />
    <path d="M90,175 C85,170 78,171 75,175 C72,179 75,188 83,187 C91,186 95,180 90,175 Z" fill="#D4EBC7" fill-opacity="0.7" />
    
    <!-- Leaves on middle vine -->
    <path d="M97,95 C92,90 85,91 82,95 C79,99 82,108 90,107 C98,106 102,100 97,95 Z" fill="#83BD75" />
    
    <path d="M92,115 C87,110 80,111 77,115 C74,119 77,128 85,127 C93,126 97,120 92,115 Z" fill="#83BD75" />
    <path d="M87,115 C82,110 75,111 72,115 C69,119 72,128 80,127 C88,126 92,120 87,115 Z" fill="#D4EBC7" fill-opacity="0.7" />
    
    <path d="M105,135 C100,130 93,131 90,135 C87,139 90,148 98,147 C106,146 110,140 105,135 Z" fill="#83BD75" />
    
    <path d="M115,155 C110,150 103,151 100,155 C97,159 100,168 108,167 C116,166 120,160 115,155 Z" fill="#83BD75" />
    <path d="M110,155 C105,150 98,151 95,155 C92,159 95,168 103,167 C111,166 115,160 110,155 Z" fill="#D4EBC7" fill-opacity="0.7" />
    
    <!-- Leaves on right vine -->
    <path d="M127,95 C122,90 115,91 112,95 C109,99 112,108 120,107 C128,106 132,100 127,95 Z" fill="#83BD75" />
    <path d="M122,95 C117,90 110,91 107,95 C104,99 107,108 115,107 C123,106 127,100 122,95 Z" fill="#D4EBC7" fill-opacity="0.7" />
    
    <path d="M135,115 C130,110 123,111 120,115 C117,119 120,128 128,127 C136,126 140,120 135,115 Z" fill="#83BD75" />
    
    <path d="M115,125 C110,120 103,121 100,125 C97,129 100,138 108,137 C116,136 120,130 115,125 Z" fill="#83BD75" />
    <path d="M110,125 C105,120 98,121 95,125 C92,129 95,138 103,137 C111,136 115,130 110,125 Z" fill="#D4EBC7" fill-opacity="0.7" />
    
    <path d="M105,145 C100,140 93,141 90,145 C87,149 90,158 98,157 C106,156 110,150 105,145 Z" fill="#83BD75" />
    
    <path d="M105,175 C100,170 93,171 90,175 C87,179 90,188 98,187 C106,186 110,180 105,175 Z" fill="#83BD75" />
    <path d="M100,175 C95,170 88,171 85,175 C82,179 85,188 93,187 C101,186 105,180 100,175 Z" fill="#D4EBC7" fill-opacity="0.7" />
    
    <!-- Hanging strings -->
    <line x1="100" y1="30" x2="100" y2="60" stroke="#8B572A" stroke-width="2" />
    <line x1="80" y1="45" x2="100" y2="30" stroke="#8B572A" stroke-width="2" />
    <line x1="120" y1="45" x2="100" y2="30" stroke="#8B572A" stroke-width="2" />
  </g>
</svg>