<?xml version="1.0" encoding="UTF-8"?>
<svg width="200px" height="200px" viewBox="0 0 200 200" version="1.1" xmlns="http://www.w3.org/2000/svg">
  <g stroke="none" stroke-width="1" fill="none" fill-rule="evenodd">
    <!-- Pot -->
    <path d="M75,170 L70,190 L130,190 L125,170 Z" fill="#B26E63" />
    
    <!-- Main stem -->
    <path d="M100,170 C100,150 102,130 105,110 C107,90 110,70 105,50" stroke="#8B4513" stroke-width="4" stroke-linecap="round" />
    
    <!-- Branch stems -->
    <path d="M103,140 C110,138 115,136 120,135" stroke="#8B4513" stroke-width="2" stroke-linecap="round" />
    <path d="M105,120 C115,118 122,115 130,112" stroke="#8B4513" stroke-width="2" stroke-linecap="round" />
    <path d="M107,100 C115,98 120,95 125,90" stroke="#8B4513" stroke-width="2" stroke-linecap="round" />
    <path d="M108,85 C115,83 118,80 122,75" stroke="#8B4513" stroke-width="2" stroke-linecap="round" />
    <path d="M107,70 C113,68 116,65 120,60" stroke="#8B4513" stroke-width="2" stroke-linecap="round" />
    <path d="M105,55 C95,53 88,51 80,50" stroke="#8B4513" stroke-width="2" stroke-linecap="round" />
    
    <!-- Rubber plant leaves - dark burgundy color -->
    <!-- Bottom right leaf -->
    <path d="M120,135 C130,132 150,130 155,125 C160,120 163,110 158,105 C153,100 140,100 130,105 C125,107 122,110 120,115 C118,120 118,130 120,135 Z" fill="#5D2935" />
    <path d="M120,135 C130,132 150,130 155,125 C160,120 163,110 158,105" stroke="#4A1F2A" stroke-width="1" />
    <path d="M158,105 C153,100 140,100 130,105" stroke="#4A1F2A" stroke-width="1" />
    
    <!-- Middle right leaf -->
    <path d="M130,112 C140,110 155,106 160,100 C165,94 168,85 163,80 C158,75 145,77 135,82 C130,85 128,88 127,92 C125,97 127,108 130,112 Z" fill="#5D2935" />
    <path d="M130,112 C140,110 155,106 160,100 C165,94 168,85 163,80" stroke="#4A1F2A" stroke-width="1" />
    <path d="M163,80 C158,75 145,77 135,82" stroke="#4A1F2A" stroke-width="1" />
    
    <!-- Upper right leaf -->
    <path d="M125,90 C135,88 150,84 155,78 C160,72 163,63 158,58 C153,53 140,55 130,60 C125,63 123,66 122,70 C120,75 122,86 125,90 Z" fill="#5D2935" />
    <path d="M125,90 C135,88 150,84 155,78 C160,72 163,63 158,58" stroke="#4A1F2A" stroke-width="1" />
    <path d="M158,58 C153,53 140,55 130,60" stroke="#4A1F2A" stroke-width="1" />
    
    <!-- Top right leaf -->
    <path d="M122,75 C132,73 145,69 150,63 C155,57 158,48 153,43 C148,38 135,40 125,45 C120,48 118,51 117,55 C115,60 119,71 122,75 Z" fill="#5D2935" />
    <path d="M122,75 C132,73 145,69 150,63 C155,57 158,48 153,43" stroke="#4A1F2A" stroke-width="1" />
    <path d="M153,43 C148,38 135,40 125,45" stroke="#4A1F2A" stroke-width="1" />
    
    <!-- Topmost right leaf -->
    <path d="M120,60 C130,58 143,54 148,48 C153,42 156,33 151,28 C146,23 133,25 123,30 C118,33 116,36 115,40 C113,45 117,56 120,60 Z" fill="#5D2935" />
    <path d="M120,60 C130,58 143,54 148,48 C153,42 156,33 151,28" stroke="#4A1F2A" stroke-width="1" />
    <path d="M151,28 C146,23 133,25 123,30" stroke="#4A1F2A" stroke-width="1" />
    
    <!-- Left leaf -->
    <path d="M80,50 C70,48 55,44 50,38 C45,32 42,23 47,18 C52,13 65,15 75,20 C80,23 82,26 83,30 C85,35 83,46 80,50 Z" fill="#5D2935" />
    <path d="M80,50 C70,48 55,44 50,38 C45,32 42,23 47,18" stroke="#4A1F2A" stroke-width="1" />
    <path d="M47,18 C52,13 65,15 75,20" stroke="#4A1F2A" stroke-width="1" />
    
    <!-- Leaf veins -->
    <path d="M120,135 C125,130 130,125 135,120" stroke="#4A1F2A" stroke-width="0.5" />
    <path d="M130,112 C135,107 140,102 145,97" stroke="#4A1F2A" stroke-width="0.5" />
    <path d="M125,90 C130,85 135,80 140,75" stroke="#4A1F2A" stroke-width="0.5" />
    <path d="M122,75 C127,70 132,65 137,60" stroke="#4A1F2A" stroke-width="0.5" />
    <path d="M120,60 C125,55 130,50 135,45" stroke="#4A1F2A" stroke-width="0.5" />
    <path d="M80,50 C75,45 70,40 65,35" stroke="#4A1F2A" stroke-width="0.5" />
  </g>
</svg>