<?xml version="1.0" encoding="UTF-8"?>
<svg width="200px" height="200px" viewBox="0 0 200 200" version="1.1" xmlns="http://www.w3.org/2000/svg">
  <g stroke="none" stroke-width="1" fill="none" fill-rule="evenodd">
    <!-- Pot -->
    <path d="M70,170 L65,190 L135,190 L130,170 Z" fill="#B26E63" />
    
    <!-- Main plant center -->
    <ellipse cx="100" cy="155" rx="25" ry="10" fill="#4A7E43" />
    
    <!-- Long arching leaves -->
    <!-- Leaf 1 - back left -->
    <path d="M85,155 C75,140 60,110 45,90 C55,85 72,95 85,155 Z" fill="#4A7E43" />
    <path d="M85,155 C75,140 60,110 45,90" stroke="#3D6E36" stroke-width="1" />
    <!-- Center stripe -->
    <path d="M82,155 C72,140 57,110 45,92" stroke="#D4EBC7" stroke-width="3" />
    
    <!-- Leaf 2 - back right -->
    <path d="M115,155 C125,140 140,110 155,90 C145,85 128,95 115,155 Z" fill="#4A7E43" />
    <path d="M115,155 C125,140 140,110 155,90" stroke="#3D6E36" stroke-width="1" />
    <!-- Center stripe -->
    <path d="M118,155 C128,140 143,110 155,92" stroke="#D4EBC7" stroke-width="3" />
    
    <!-- Leaf 3 - middle left -->
    <path d="M90,155 C75,130 55,95 40,60 C50,55 70,70 90,155 Z" fill="#4A7E43" />
    <path d="M90,155 C75,130 55,95 40,60" stroke="#3D6E36" stroke-width="1" />
    <!-- Center stripe -->
    <path d="M87,155 C72,130 52,95 42,62" stroke="#D4EBC7" stroke-width="3" />
    
    <!-- Leaf 4 - middle right -->
    <path d="M110,155 C125,130 145,95 160,60 C150,55 130,70 110,155 Z" fill="#4A7E43" />
    <path d="M110,155 C125,130 145,95 160,60" stroke="#3D6E36" stroke-width="1" />
    <!-- Center stripe -->
    <path d="M113,155 C128,130 148,95 158,62" stroke="#D4EBC7" stroke-width="3" />
    
    <!-- Leaf 5 - front left -->
    <path d="M95,155 C80,125 55,80 30,50 C45,45 70,60 95,155 Z" fill="#4A7E43" />
    <path d="M95,155 C80,125 55,80 30,50" stroke="#3D6E36" stroke-width="1" />
    <!-- Center stripe -->
    <path d="M92,155 C77,125 52,80 32,52" stroke="#D4EBC7" stroke-width="3" />
    
    <!-- Leaf 6 - front right -->
    <path d="M105,155 C120,125 145,80 170,50 C155,45 130,60 105,155 Z" fill="#4A7E43" />
    <path d="M105,155 C120,125 145,80 170,50" stroke="#3D6E36" stroke-width="1" />
    <!-- Center stripe -->
    <path d="M108,155 C123,125 148,80 168,52" stroke="#D4EBC7" stroke-width="3" />
    
    <!-- Spider plant babies hanging on stems -->
    <!-- Left side babies -->
    <path d="M65,105 C60,115 50,125 45,120" stroke="#5D8250" stroke-width="1" />
    <ellipse cx="45" cy="120" rx="5" ry="3" fill="#4A7E43" />
    
    <path d="M55,80 C45,90 35,93 30,90" stroke="#5D8250" stroke-width="1" />
    <ellipse cx="30" cy="90" rx="5" ry="3" fill="#4A7E43" />
    
    <path d="M45,60 C35,65 25,67 20,65" stroke="#5D8250" stroke-width="1" />
    <ellipse cx="20" cy="65" rx="5" ry="3" fill="#4A7E43" />
    
    <!-- Right side babies -->
    <path d="M135,105 C140,115 150,125 155,120" stroke="#5D8250" stroke-width="1" />
    <ellipse cx="155" cy="120" rx="5" ry="3" fill="#4A7E43" />
    
    <path d="M145,80 C155,90 165,93 170,90" stroke="#5D8250" stroke-width="1" />
    <ellipse cx="170" cy="90" rx="5" ry="3" fill="#4A7E43" />
    
    <path d="M155,60 C165,65 175,67 180,65" stroke="#5D8250" stroke-width="1" />
    <ellipse cx="180" cy="65" rx="5" ry="3" fill="#4A7E43" />
  </g>
</svg>