<?xml version="1.0" encoding="UTF-8"?>
<svg width="200px" height="200px" viewBox="0 0 200 200" version="1.1" xmlns="http://www.w3.org/2000/svg">
  <g stroke="none" stroke-width="1" fill="none" fill-rule="evenodd">
    <!-- Hanging pot -->
    <path d="M75,50 L70,65 L130,65 L125,50 Z" fill="#B26E63" />
    <path d="M75,50 L125,50" stroke="#7D5C58" stroke-width="2" />
    
    <!-- Strings/vines -->
    <path d="M80,65 C80,90 75,110 85,130 C95,150 90,170 85,190" stroke="#7D9C5B" stroke-width="2" stroke-linecap="round" />
    <path d="M100,65 C100,85 95,105 105,125 C115,145 110,165 120,185" stroke="#7D9C5B" stroke-width="2" stroke-linecap="round" />
    <path d="M120,65 C120,80 115,100 125,120 C135,140 130,160 125,180" stroke="#7D9C5B" stroke-width="2" stroke-linecap="round" />
    
    <!-- Left vine pearls -->
    <circle cx="80" cy="75" r="6" fill="#7EAA69" />
    <circle cx="78" cy="85" r="6" fill="#7EAA69" />
    <circle cx="76" cy="95" r="6" fill="#7EAA69" />
    <circle cx="78" cy="105" r="6" fill="#7EAA69" />
    <circle cx="82" cy="115" r="6" fill="#7EAA69" />
    <circle cx="87" cy="125" r="6" fill="#7EAA69" />
    <circle cx="90" cy="135" r="6" fill="#7EAA69" />
    <circle cx="88" cy="145" r="6" fill="#7EAA69" />
    <circle cx="86" cy="155" r="6" fill="#7EAA69" />
    <circle cx="85" cy="165" r="6" fill="#7EAA69" />
    <circle cx="85" cy="175" r="6" fill="#7EAA69" />
    <circle cx="85" cy="185" r="6" fill="#7EAA69" />
    
    <!-- Middle vine pearls -->
    <circle cx="100" cy="75" r="6" fill="#7EAA69" />
    <circle cx="98" cy="85" r="6" fill="#7EAA69" />
    <circle cx="97" cy="95" r="6" fill="#7EAA69" />
    <circle cx="99" cy="105" r="6" fill="#7EAA69" />
    <circle cx="102" cy="115" r="6" fill="#7EAA69" />
    <circle cx="107" cy="125" r="6" fill="#7EAA69" />
    <circle cx="112" cy="135" r="6" fill="#7EAA69" />
    <circle cx="112" cy="145" r="6" fill="#7EAA69" />
    <circle cx="114" cy="155" r="6" fill="#7EAA69" />
    <circle cx="117" cy="165" r="6" fill="#7EAA69" />
    <circle cx="119" cy="175" r="6" fill="#7EAA69" />
    <circle cx="120" cy="185" r="6" fill="#7EAA69" />
    
    <!-- Right vine pearls -->
    <circle cx="120" cy="75" r="6" fill="#7EAA69" />
    <circle cx="118" cy="85" r="6" fill="#7EAA69" />
    <circle cx="117" cy="95" r="6" fill="#7EAA69" />
    <circle cx="120" cy="105" r="6" fill="#7EAA69" />
    <circle cx="123" cy="115" r="6" fill="#7EAA69" />
    <circle cx="127" cy="125" r="6" fill="#7EAA69" />
    <circle cx="130" cy="135" r="6" fill="#7EAA69" />
    <circle cx="129" cy="145" r="6" fill="#7EAA69" />
    <circle cx="127" cy="155" r="6" fill="#7EAA69" />
    <circle cx="126" cy="165" r="6" fill="#7EAA69" />
    <circle cx="125" cy="175" r="6" fill="#7EAA69" />
    
    <!-- Hanging strings -->
    <line x1="100" y1="30" x2="100" y2="50" stroke="#8B572A" stroke-width="2" />
    <line x1="70" y1="40" x2="100" y2="30" stroke="#8B572A" stroke-width="2" />
    <line x1="130" y1="40" x2="100" y2="30" stroke="#8B572A" stroke-width="2" />
  </g>
</svg>